<svg version="1" xmlns="http://www.w3.org/2000/svg" width="925.333" height="925.333" viewBox="0 0 694.000000 694.000000"><path d="M35 347v347h625V0H35v347zm78.2-162.6c-.5 4.4-1.7 4.7-1.7.6-.1-1.7.3-3 .8-3 .4 0 .5-.5.1-1.2-.4-.6-.3-.8.3-.5.5.3.7 2.2.5 4.1zm-.2 7.8c0 1.7-.3 2.8-.7 2.4-1-1-1.1-5.6-.1-5.6.4 0 .8 1.4.8 3.2zm0 4.8c0 .5-.2 1-.4 1-.3 0-.8-.5-1.1-1-.3-.6-.1-1 .4-1 .6 0 1.1.4 1.1 1zm-.2 5.5c.1 1.9-.2 3.5-.6 3.5-.4 0-.8-1.6-.8-3.5s.3-3.5.7-3.5c.3 0 .6 1.6.7 3.5zm.2 6c0 .9-.6 1.2-1.6.8-1.3-.5-1.3-.7-.2-1.4 1.7-1.1 1.8-1.1 1.8.6zm0 3.5c0 .5-.5 1-1.1 1-.5 0-.7-.5-.4-1 .3-.6.8-1 1.1-1 .2 0 .4.4.4 1zm-.2 4.5c0 1.4-.4 2.5-.7 2.5-.4 0-.7-1.1-.7-2.5s.3-2.5.7-2.5c.3 0 .7 1.1.7 2.5zm-.1 5.5c-.1 2.1-1 1.8-1.3-.5-.1-.8.2-1.5.6-1.5.5 0 .8.9.7 2zm.3 4.5c0 .8-.4 1.5-.8 1.5-.5 0-.9-.7-.9-1.5s.4-1.5.9-1.5c.4 0 .8.7.8 1.5zm0 4c0 .8-.4 1.5-.8 1.5-.5 0-.9-.7-.9-1.5s.4-1.5.9-1.5c.4 0 .8.7.8 1.5zm0 4c0 .8-.4 1.5-.8 1.5-.5 0-.9-.7-.9-1.5s.4-1.5.9-1.5c.4 0 .8.7.8 1.5zm0 5.4c0 1.8-.6 3.1-1.6 3.5-1.3.5-1.4.4-.6-.7.6-.7 1-2.3.7-3.5-.2-1.2 0-2.2.6-2.2.5 0 .9 1.3.9 2.9zm-.2 6.6c0 1.6-.6 2.5-1.7 2.5-1.2 0-1.3-.2-.3-.9.8-.4 1.3-1.1 1.3-1.5-.2-1.4-.1-2.6.3-2.6.2 0 .4 1.1.4 2.5zm0 7.5c.1 2.2-.2 4-.6 4-.6 0-.8-3.8-.3-7.3.3-2 .8-.3.9 3.3zm0 7.5c0 1.4-.4 2.5-.7 2.5-.4 0-.7-1.1-.7-2.5s.3-2.5.7-2.5c.3 0 .7 1.1.7 2.5zm-.1 7c-.1 1.9-.3 3.2-.6 2.9-.8-.7-.8-6.4 0-6.4.3 0 .6 1.6.6 3.5zm.3 6c0 .8-.4 1.5-.8 1.5-.5 0-.9-.7-.9-1.5s.4-1.5.9-1.5c.4 0 .8.7.8 1.5zm0 4c0 .8-.4 1.5-.8 1.5-.5 0-.9-.7-.9-1.5s.4-1.5.9-1.5c.4 0 .8.7.8 1.5zm0 4c0 .8-.4 1.5-.8 1.5-.5 0-.9-.7-.9-1.5s.4-1.5.9-1.5c.4 0 .8.7.8 1.5zm0 5.7c0 1.7-.3 2.8-.7 2.4-1-1-1.1-5.6-.1-5.6.4 0 .8 1.4.8 3.2zm-.3 7.8c0 2.2-.3 4-.6 4-.4 0-.6-1.8-.6-4s.2-4 .6-4c.3 0 .6 1.8.6 4zm.3 6c0 .5-.2 1-.4 1-.3 0-.8-.5-1.1-1-.3-.6-.1-1 .4-1 .6 0 1.1.4 1.1 1zm0 2.8c0 .5-.7.9-1.5.9s-1.2-.4-.9-.9c.3-.4.9-.8 1.5-.8.5 0 .9.4.9.8zm0 3.2c0 .5-.5 1-1.1 1-.5 0-.7-.5-.4-1 .3-.6.8-1 1.1-1 .2 0 .4.4.4 1zm-.2 4.5c0 1.4-.4 2.5-.7 2.5-.4 0-.7-1.1-.7-2.5s.3-2.5.7-2.5c.3 0 .7 1.1.7 2.5zm-.1 5.5c-.1 1.2-.5 1.6-1 1.1s-.6-1.4-.3-2c1.1-1.6 1.5-1.3 1.3.9zm.1 11.6c0 4.7-.3 8.3-.6 7.9-.9-.8-1-16.5-.2-16.5.4 0 .7 3.9.8 8.6zm.2 10.4c0 .5-.2 1-.4 1-.3 0-.8-.5-1.1-1-.3-.6-.1-1 .4-1 .6 0 1.1.4 1.1 1zm0 28c0 .5-.5 1-1.1 1-.5 0-.7-.5-.4-1 .3-.6.8-1 1.1-1 .2 0 .4.4.4 1zm-.3 11.5c0 .8-.4 1.2-.9.9-.5-.3-.6-1-.3-1.5.9-1.3 1.2-1.1 1.2.6zm0 16c0 .8-.4 1.2-.9.9-.5-.3-.6-1-.3-1.5.9-1.3 1.2-1.1 1.2.6zm0 16c0 .8-.4 1.2-.9.9-.5-.3-.6-1-.3-1.5.9-1.3 1.2-1.1 1.2.6zm0 16c0 .8-.4 1.2-.9.9-.5-.3-.6-1-.3-1.5.9-1.3 1.2-1.1 1.2.6zm0 16c0 .8-.4 1.2-.9.9-.5-.3-.6-1-.3-1.5.9-1.3 1.2-1.1 1.2.6zm0 16c0 .8-.4 1.2-.9.9-.5-.3-.6-1-.3-1.5.9-1.3 1.2-1.1 1.2.6zm.3 6.5c0 .5-.2 1-.4 1-.3 0-.8-.5-1.1-1-.3-.6-.1-1 .4-1 .6 0 1.1.4 1.1 1zm0 3c0 .5-.5 1-1.1 1-.5 0-.7-.5-.4-1 .3-.6.8-1 1.1-1 .2 0 .4.4.4 1zm-.2 8.5c.1 3.6-.2 6.5-.6 6.5-.5 0-.8-11.5-.3-12.8.5-1.2.8.8.9 6.3zm.2 8.5c0 .5-.2 1-.4 1-.3 0-.8-.5-1.1-1-.3-.6-.1-1 .4-1 .6 0 1.1.4 1.1 1zm0 3c0 .5-.7.7-1.5.4-.8-.4-1.5-.8-1.5-1 0-.2.7-.4 1.5-.4s1.5.4 1.5 1zm0 3c0 .5-.5 1-1.1 1-.5 0-.7-.5-.4-1 .3-.6.8-1 1.1-1 .2 0 .4.4.4 1zm-.2 5.1c.1 3.1-1 3.3-1.4.2-.3-1.5.3-3.3 1-3.3.2 0 .3 1.4.4 3.1zm.2 4.9c0 .5-.4 1-1 1-.5 0-1-.5-1-1 0-.6.5-1 1-1 .6 0 1 .4 1 1zm-.3 18.5c0 14.5-.2 16.5-1.6 16.5-.9 0-1.2-.3-.6-.8 1.4-1 1.4-28.5.1-29.4-.7-.5-.6-.8.2-.8.7 0 1-.5.7-1-.3-.6-.2-1 .3-1 .4 0 .9 7.4.9 16.5zm.3 18.5c0 .5-.5 1-1.1 1-.5 0-.7-.5-.4-1 .3-.6.8-1 1.1-1 .2 0 .4.4.4 1zm-.3 6c0 3-.4 4-1.6 4-1 0-1.2-.3-.5-.8.5-.4.9-2.2.8-4 0-1.7.2-3.2.6-3.2.4 0 .7 1.8.7 4zm.3 6c0 .5-.5 1-1.1 1-.5 0-.7-.5-.4-1 .3-.6.8-1 1.1-1 .2 0 .4.4.4 1zm-.3 18.2c0 9-.2 15.7-.4 15-.3-.6-1-.9-1.6-.5-.9.5-.9.3-.1-.8.7-.9 1-6.7.9-15.7 0-7.8.2-14.2.5-14.2.4 0 .6 7.3.7 16.2zm.1 19.3c0 1.4-.4 2.5-.7 2.5-.4 0-.7-1.1-.7-2.5s.3-2.5.7-2.5c.3 0 .7 1.1.7 2.5zm0 6c0 1.4-.4 2.5-.7 2.5-.4 0-.7-1.1-.7-2.5s.3-2.5.7-2.5c.3 0 .7 1.1.7 2.5zm0 6c0 1.4-.4 2.5-.8 2.5-.6 0-.7-3.7-.1-4.8.4-.9.9.2.9 2.3zm-.1 5.5c-.1 1.2-.5 1.6-1 1.1s-.6-1.4-.3-2c1.1-1.6 1.5-1.3 1.3.9zm.3 4.5c0 .8-.4 1.5-.8 1.5-.5 0-.9-.7-.9-1.5s.4-1.5.9-1.5c.4 0 .8.7.8 1.5zm0 4c0 .8-.4 1.5-.8 1.5-.5 0-.9-.7-.9-1.5s.4-1.5.9-1.5c.4 0 .8.7.8 1.5zm0 4c0 .8-.4 1.5-.8 1.5-.5 0-.9-.7-.9-1.5s.4-1.5.9-1.5c.4 0 .8.7.8 1.5zm0 5.1c0 1.4-.4 2.3-.9 1.9-1.1-.6-1-4.5.1-4.5.4 0 .8 1.2.8 2.6z"/></svg>